<?xml version="1.0" encoding="UTF-8" standalone="no"?>
<!DOCTYPE svg PUBLIC "-//W3C//DTD SVG 1.1//EN"
 "http://www.w3.org/Graphics/SVG/1.1/DTD/svg11.dtd">
<!-- Generated by graphviz version 2.47.0 (20210316.0004)
 -->
<!-- Title: dependencies Pages: 1 -->
<svg width="1367pt" height="306pt"
 viewBox="0.00 0.00 1367.00 306.00" xmlns="http://www.w3.org/2000/svg" xmlns:xlink="http://www.w3.org/1999/xlink">
<g id="graph0" class="graph" transform="scale(1 1) rotate(0) translate(4 302)">
<title>dependencies</title>
<polygon fill="white" stroke="transparent" points="-4,4 -4,-302 1363,-302 1363,4 -4,4"/>
<text text-anchor="start" x="658.51" y="-42.4" font-family="Times-12" font-weight="bold" font-size="14.00">Legend</text>
<polygon fill="#ffffb3" stroke="transparent" points="445.5,-10 445.5,-30 465.5,-30 465.5,-10 445.5,-10"/>
<text text-anchor="start" x="469.13" y="-15.4" font-family="Times-12" font-size="14.00"> &#160;Declarations</text>
<polygon fill="#8dd3c7" stroke="transparent" points="558.5,-10 558.5,-30 578.5,-30 578.5,-10 558.5,-10"/>
<text text-anchor="start" x="582.23" y="-15.4" font-family="Times-12" font-size="14.00"> &#160;Module</text>
<polygon fill="#80b1d3" stroke="transparent" points="644.5,-10 644.5,-30 664.5,-30 664.5,-10 644.5,-10"/>
<text text-anchor="start" x="668.28" y="-15.4" font-family="Times-12" font-size="14.00"> &#160;Bootstrap</text>
<polygon fill="#fdb462" stroke="transparent" points="741.5,-10 741.5,-30 761.5,-30 761.5,-10 741.5,-10"/>
<text text-anchor="start" x="765.17" y="-15.4" font-family="Times-12" font-size="14.00"> &#160;Providers</text>
<polygon fill="#fb8072" stroke="transparent" points="837.5,-10 837.5,-30 857.5,-30 857.5,-10 837.5,-10"/>
<text text-anchor="start" x="861.23" y="-15.4" font-family="Times-12" font-size="14.00"> &#160;Exports</text>
<g id="clust19" class="cluster">
<title>cluster_PostsModule</title>
<polygon fill="none" stroke="black" stroke-dasharray="1,5" points="8,-70 8,-206 276,-206 276,-70 8,-70"/>
</g>
<g id="clust21" class="cluster">
<title>cluster_PostsModule_imports</title>
<polygon fill="none" stroke="black" points="160,-78 160,-130 268,-130 268,-78 160,-78"/>
</g>
<g id="clust24" class="cluster">
<title>cluster_PostsModule_providers</title>
<polygon fill="none" stroke="black" points="16,-78 16,-130 152,-130 152,-78 16,-78"/>
</g>
<g id="clust1" class="cluster">
<title>cluster_AppModule</title>
<polygon fill="none" stroke="black" stroke-dasharray="1,5" points="566,-146 566,-282 1079,-282 1079,-146 566,-146"/>
</g>
<g id="clust3" class="cluster">
<title>cluster_AppModule_imports</title>
<polygon fill="none" stroke="black" points="712,-154 712,-206 1071,-206 1071,-154 712,-154"/>
</g>
<g id="clust6" class="cluster">
<title>cluster_AppModule_providers</title>
<polygon fill="none" stroke="black" points="574,-154 574,-206 704,-206 704,-154 574,-154"/>
</g>
<g id="clust13" class="cluster">
<title>cluster_MetaOptionsModule</title>
<polygon fill="none" stroke="black" stroke-dasharray="1,5" points="785,-70 785,-138 997,-138 997,-70 785,-70"/>
</g>
<g id="clust18" class="cluster">
<title>cluster_MetaOptionsModule_providers</title>
<polygon fill="none" stroke="black" points="793,-78 793,-130 989,-130 989,-78 793,-78"/>
</g>
<g id="clust31" class="cluster">
<title>cluster_UsersModule</title>
<polygon fill="none" stroke="black" stroke-dasharray="1,5" points="284,-146 284,-214 558,-214 558,-146 284,-146"/>
</g>
<g id="clust34" class="cluster">
<title>cluster_UsersModule_exports</title>
<polygon fill="none" stroke="black" points="440,-154 440,-206 550,-206 550,-154 440,-154"/>
</g>
<g id="clust36" class="cluster">
<title>cluster_UsersModule_providers</title>
<polygon fill="none" stroke="black" points="292,-154 292,-206 432,-206 432,-154 292,-154"/>
</g>
<g id="clust7" class="cluster">
<title>cluster_AuthModule</title>
<polygon fill="none" stroke="black" stroke-dasharray="1,5" points="1087,-222 1087,-290 1351,-290 1351,-222 1087,-222"/>
</g>
<g id="clust10" class="cluster">
<title>cluster_AuthModule_exports</title>
<polygon fill="none" stroke="black" points="1237,-230 1237,-282 1343,-282 1343,-230 1237,-230"/>
</g>
<g id="clust12" class="cluster">
<title>cluster_AuthModule_providers</title>
<polygon fill="none" stroke="black" points="1095,-230 1095,-282 1229,-282 1229,-230 1095,-230"/>
</g>
<!-- AuthModule -->
<g id="node1" class="node">
<title>AuthModule</title>
<polygon fill="#8dd3c7" stroke="black" points="1062.55,-198 1059.55,-202 1038.55,-202 1035.55,-198 975.45,-198 975.45,-162 1062.55,-162 1062.55,-198"/>
<text text-anchor="middle" x="1019" y="-175.8" font-family="Times,serif" font-size="14.00">AuthModule</text>
</g>
<!-- AppModule -->
<g id="node6" class="node">
<title>AppModule</title>
<polygon fill="#8dd3c7" stroke="black" points="742.66,-274 739.66,-278 718.66,-278 715.66,-274 659.34,-274 659.34,-238 742.66,-238 742.66,-274"/>
<text text-anchor="middle" x="701" y="-251.8" font-family="Times,serif" font-size="14.00">AppModule</text>
</g>
<!-- AuthModule&#45;&gt;AppModule -->
<g id="edge1" class="edge">
<title>AuthModule&#45;&gt;AppModule</title>
<path fill="none" stroke="black" d="M1004.41,-198.01C1004.41,-220.49 1004.41,-256 1004.41,-256 1004.41,-256 752.87,-256 752.87,-256"/>
<polygon fill="black" stroke="black" points="752.87,-252.5 742.87,-256 752.87,-259.5 752.87,-252.5"/>
</g>
<!-- AuthService  -->
<g id="node8" class="node">
<title>AuthService </title>
<polygon fill="#fb8072" stroke="black" points="1334.98,-274 1245.02,-274 1245.02,-238 1334.98,-238 1334.98,-274"/>
<text text-anchor="middle" x="1290" y="-251.8" font-family="Times,serif" font-size="14.00">AuthService </text>
</g>
<!-- AuthModule&#45;&gt;AuthService  -->
<g id="edge7" class="edge">
<title>AuthModule&#45;&gt;AuthService </title>
<path fill="none" stroke="black" stroke-dasharray="5,2" d="M1062.84,-180C1139.54,-180 1290,-180 1290,-180 1290,-180 1290,-227.99 1290,-227.99"/>
<polygon fill="black" stroke="black" points="1286.5,-227.99 1290,-237.99 1293.5,-227.99 1286.5,-227.99"/>
</g>
<!-- MetaOptionsModule -->
<g id="node2" class="node">
<title>MetaOptionsModule</title>
<polygon fill="#8dd3c7" stroke="black" points="957.15,-198 954.15,-202 933.15,-202 930.15,-198 824.85,-198 824.85,-162 957.15,-162 957.15,-198"/>
<text text-anchor="middle" x="891" y="-175.8" font-family="Times,serif" font-size="14.00">MetaOptionsModule</text>
</g>
<!-- MetaOptionsModule&#45;&gt;AppModule -->
<g id="edge2" class="edge">
<title>MetaOptionsModule&#45;&gt;AppModule</title>
<path fill="none" stroke="black" d="M891,-198.31C891,-218.15 891,-247 891,-247 891,-247 752.7,-247 752.7,-247"/>
<polygon fill="black" stroke="black" points="752.7,-243.5 742.7,-247 752.7,-250.5 752.7,-243.5"/>
</g>
<!-- PostsModule -->
<g id="node3" class="node">
<title>PostsModule</title>
<polygon fill="#8dd3c7" stroke="black" points="237.61,-198 234.61,-202 213.61,-202 210.61,-198 148.39,-198 148.39,-162 237.61,-162 237.61,-198"/>
<text text-anchor="middle" x="193" y="-175.8" font-family="Times,serif" font-size="14.00">PostsModule</text>
</g>
<!-- PostsModule&#45;&gt;AppModule -->
<g id="edge3" class="edge">
<title>PostsModule&#45;&gt;AppModule</title>
<path fill="none" stroke="black" d="M193,-198.2C193,-222.36 193,-262 193,-262 193,-262 649,-262 649,-262"/>
<polygon fill="black" stroke="black" points="649,-265.5 659,-262 649,-258.5 649,-265.5"/>
</g>
<!-- TagsModule -->
<g id="node4" class="node">
<title>TagsModule</title>
<polygon fill="#8dd3c7" stroke="black" points="806.26,-198 803.26,-202 782.26,-202 779.26,-198 719.74,-198 719.74,-162 806.26,-162 806.26,-198"/>
<text text-anchor="middle" x="763" y="-175.8" font-family="Times,serif" font-size="14.00">TagsModule</text>
</g>
<!-- TagsModule&#45;&gt;AppModule -->
<g id="edge4" class="edge">
<title>TagsModule&#45;&gt;AppModule</title>
<path fill="none" stroke="black" d="M731.22,-198.01C731.22,-198.01 731.22,-227.85 731.22,-227.85"/>
<polygon fill="black" stroke="black" points="727.72,-227.85 731.22,-237.85 734.72,-227.85 727.72,-227.85"/>
</g>
<!-- UsersModule -->
<g id="node5" class="node">
<title>UsersModule</title>
<polygon fill="#8dd3c7" stroke="black" points="259.92,-122 256.92,-126 235.92,-126 232.92,-122 168.08,-122 168.08,-86 259.92,-86 259.92,-122"/>
<text text-anchor="middle" x="214" y="-99.8" font-family="Times,serif" font-size="14.00">UsersModule</text>
</g>
<!-- UsersModule&#45;&gt;PostsModule -->
<g id="edge10" class="edge">
<title>UsersModule&#45;&gt;PostsModule</title>
<path fill="none" stroke="black" d="M202.92,-122.01C202.92,-122.01 202.92,-151.85 202.92,-151.85"/>
<polygon fill="black" stroke="black" points="199.42,-151.85 202.92,-161.85 206.42,-151.85 199.42,-151.85"/>
</g>
<!-- UsersModule&#45;&gt;AppModule -->
<g id="edge5" class="edge">
<title>UsersModule&#45;&gt;AppModule</title>
<path fill="none" stroke="black" d="M244.94,-122.2C244.94,-161.33 244.94,-250 244.94,-250 244.94,-250 649.32,-250 649.32,-250"/>
<polygon fill="black" stroke="black" points="649.32,-253.5 659.32,-250 649.32,-246.5 649.32,-253.5"/>
</g>
<!-- UsersService  -->
<g id="node12" class="node">
<title>UsersService </title>
<polygon fill="#fb8072" stroke="black" points="541.85,-198 448.15,-198 448.15,-162 541.85,-162 541.85,-198"/>
<text text-anchor="middle" x="495" y="-175.8" font-family="Times,serif" font-size="14.00">UsersService </text>
</g>
<!-- UsersModule&#45;&gt;UsersService  -->
<g id="edge12" class="edge">
<title>UsersModule&#45;&gt;UsersService </title>
<path fill="none" stroke="black" stroke-dasharray="5,2" d="M259.77,-104C339.4,-104 495,-104 495,-104 495,-104 495,-151.99 495,-151.99"/>
<polygon fill="black" stroke="black" points="491.5,-151.99 495,-161.99 498.5,-151.99 491.5,-151.99"/>
</g>
<!-- AppService -->
<g id="node7" class="node">
<title>AppService</title>
<ellipse fill="#fdb462" stroke="black" cx="639" cy="-180" rx="56.74" ry="18"/>
<text text-anchor="middle" x="639" y="-175.8" font-family="Times,serif" font-size="14.00">AppService</text>
</g>
<!-- AppService&#45;&gt;AppModule -->
<g id="edge6" class="edge">
<title>AppService&#45;&gt;AppModule</title>
<path fill="none" stroke="black" d="M677.4,-193.24C677.4,-193.24 677.4,-227.79 677.4,-227.79"/>
<polygon fill="black" stroke="black" points="673.9,-227.79 677.4,-237.79 680.9,-227.79 673.9,-227.79"/>
</g>
<!-- AuthService -->
<g id="node9" class="node">
<title>AuthService</title>
<ellipse fill="#fdb462" stroke="black" cx="1162" cy="-256" rx="59.11" ry="18"/>
<text text-anchor="middle" x="1162" y="-251.8" font-family="Times,serif" font-size="14.00">AuthService</text>
</g>
<!-- AuthService&#45;&gt;AuthModule -->
<g id="edge8" class="edge">
<title>AuthService&#45;&gt;AuthModule</title>
<path fill="none" stroke="black" d="M1110.51,-265C1074.79,-265 1033.59,-265 1033.59,-265 1033.59,-265 1033.59,-208.03 1033.59,-208.03"/>
<polygon fill="black" stroke="black" points="1037.09,-208.03 1033.59,-198.03 1030.09,-208.03 1037.09,-208.03"/>
</g>
<!-- MetaOptionsService -->
<g id="node10" class="node">
<title>MetaOptionsService</title>
<ellipse fill="#fdb462" stroke="black" cx="891" cy="-104" rx="90.33" ry="18"/>
<text text-anchor="middle" x="891" y="-99.8" font-family="Times,serif" font-size="14.00">MetaOptionsService</text>
</g>
<!-- MetaOptionsService&#45;&gt;MetaOptionsModule -->
<g id="edge9" class="edge">
<title>MetaOptionsService&#45;&gt;MetaOptionsModule</title>
<path fill="none" stroke="black" d="M891,-122.01C891,-122.01 891,-151.85 891,-151.85"/>
<polygon fill="black" stroke="black" points="887.5,-151.85 891,-161.85 894.5,-151.85 887.5,-151.85"/>
</g>
<!-- PostsService -->
<g id="node11" class="node">
<title>PostsService</title>
<ellipse fill="#fdb462" stroke="black" cx="84" cy="-104" rx="60.27" ry="18"/>
<text text-anchor="middle" x="84" y="-99.8" font-family="Times,serif" font-size="14.00">PostsService</text>
</g>
<!-- PostsService&#45;&gt;PostsModule -->
<g id="edge11" class="edge">
<title>PostsService&#45;&gt;PostsModule</title>
<path fill="none" stroke="black" d="M144.73,-104C152.81,-104 158.37,-104 158.37,-104 158.37,-104 158.37,-151.99 158.37,-151.99"/>
<polygon fill="black" stroke="black" points="154.87,-151.99 158.37,-161.99 161.87,-151.99 154.87,-151.99"/>
</g>
<!-- UsersService -->
<g id="node13" class="node">
<title>UsersService</title>
<ellipse fill="#fdb462" stroke="black" cx="362" cy="-180" rx="61.95" ry="18"/>
<text text-anchor="middle" x="362" y="-175.8" font-family="Times,serif" font-size="14.00">UsersService</text>
</g>
<!-- UsersService&#45;&gt;UsersModule -->
<g id="edge13" class="edge">
<title>UsersService&#45;&gt;UsersModule</title>
<path fill="none" stroke="black" d="M299.79,-180C275.04,-180 252.33,-180 252.33,-180 252.33,-180 252.33,-132.01 252.33,-132.01"/>
<polygon fill="black" stroke="black" points="255.83,-132.01 252.33,-122.01 248.83,-132.01 255.83,-132.01"/>
</g>
</g>
</svg>
