<?xml version="1.0" encoding="UTF-8" standalone="no"?>
<!DOCTYPE svg PUBLIC "-//W3C//DTD SVG 1.1//EN"
 "http://www.w3.org/Graphics/SVG/1.1/DTD/svg11.dtd">
<!-- Generated by graphviz version 2.47.0 (20210316.0004)
 -->
<!-- Title: dependencies Pages: 1 -->
<svg width="1630pt" height="363pt"
 viewBox="0.00 0.00 1630.00 363.00" xmlns="http://www.w3.org/2000/svg" xmlns:xlink="http://www.w3.org/1999/xlink">
<g id="graph0" class="graph" transform="scale(1 1) rotate(0) translate(4 359)">
<title>dependencies</title>
<polygon fill="white" stroke="transparent" points="-4,4 -4,-359 1626,-359 1626,4 -4,4"/>
<text text-anchor="start" x="790.01" y="-42.4" font-family="Times-12" font-weight="bold" font-size="14.00">Legend</text>
<polygon fill="#ffffb3" stroke="transparent" points="577,-10 577,-30 597,-30 597,-10 577,-10"/>
<text text-anchor="start" x="600.63" y="-15.4" font-family="Times-12" font-size="14.00"> &#160;Declarations</text>
<polygon fill="#8dd3c7" stroke="transparent" points="690,-10 690,-30 710,-30 710,-10 690,-10"/>
<text text-anchor="start" x="713.73" y="-15.4" font-family="Times-12" font-size="14.00"> &#160;Module</text>
<polygon fill="#80b1d3" stroke="transparent" points="776,-10 776,-30 796,-30 796,-10 776,-10"/>
<text text-anchor="start" x="799.78" y="-15.4" font-family="Times-12" font-size="14.00"> &#160;Bootstrap</text>
<polygon fill="#fdb462" stroke="transparent" points="873,-10 873,-30 893,-30 893,-10 873,-10"/>
<text text-anchor="start" x="896.67" y="-15.4" font-family="Times-12" font-size="14.00"> &#160;Providers</text>
<polygon fill="#fb8072" stroke="transparent" points="969,-10 969,-30 989,-30 989,-10 969,-10"/>
<text text-anchor="start" x="992.73" y="-15.4" font-family="Times-12" font-size="14.00"> &#160;Exports</text>
<g id="clust1" class="cluster">
<title>cluster_AppModule</title>
<polygon fill="none" stroke="black" stroke-dasharray="1,5" points="168,-146 168,-347 790,-347 790,-146 168,-146"/>
</g>
<g id="clust3" class="cluster">
<title>cluster_AppModule_imports</title>
<polygon fill="none" stroke="black" points="314,-154 314,-282 782,-282 782,-154 314,-154"/>
</g>
<g id="clust6" class="cluster">
<title>cluster_AppModule_providers</title>
<polygon fill="none" stroke="black" points="176,-230 176,-282 306,-282 306,-230 176,-230"/>
</g>
<g id="clust13" class="cluster">
<title>cluster_MetaOptionsModule</title>
<polygon fill="none" stroke="black" stroke-dasharray="1,5" points="282,-70 282,-138 494,-138 494,-70 282,-70"/>
</g>
<g id="clust18" class="cluster">
<title>cluster_MetaOptionsModule_providers</title>
<polygon fill="none" stroke="black" points="290,-78 290,-130 486,-130 486,-78 290,-78"/>
</g>
<g id="clust25" class="cluster">
<title>cluster_TagsModule</title>
<polygon fill="none" stroke="black" stroke-dasharray="1,5" points="1070,-222 1070,-290 1332,-290 1332,-222 1070,-222"/>
</g>
<g id="clust28" class="cluster">
<title>cluster_TagsModule_exports</title>
<polygon fill="none" stroke="black" points="1220,-230 1220,-282 1324,-282 1324,-230 1220,-230"/>
</g>
<g id="clust30" class="cluster">
<title>cluster_TagsModule_providers</title>
<polygon fill="none" stroke="black" points="1078,-230 1078,-282 1212,-282 1212,-230 1078,-230"/>
</g>
<g id="clust7" class="cluster">
<title>cluster_AuthModule</title>
<polygon fill="none" stroke="black" stroke-dasharray="1,5" points="798,-222 798,-290 1062,-290 1062,-222 798,-222"/>
</g>
<g id="clust12" class="cluster">
<title>cluster_AuthModule_providers</title>
<polygon fill="none" stroke="black" points="920,-230 920,-282 1054,-282 1054,-230 920,-230"/>
</g>
<g id="clust10" class="cluster">
<title>cluster_AuthModule_exports</title>
<polygon fill="none" stroke="black" points="806,-230 806,-282 912,-282 912,-230 806,-230"/>
</g>
<g id="clust19" class="cluster">
<title>cluster_PostsModule</title>
<polygon fill="none" stroke="black" stroke-dasharray="1,5" points="8,-146 8,-214 160,-214 160,-146 8,-146"/>
</g>
<g id="clust24" class="cluster">
<title>cluster_PostsModule_providers</title>
<polygon fill="none" stroke="black" points="16,-154 16,-206 152,-206 152,-154 16,-154"/>
</g>
<g id="clust31" class="cluster">
<title>cluster_UsersModule</title>
<polygon fill="none" stroke="black" stroke-dasharray="1,5" points="1340,-222 1340,-290 1614,-290 1614,-222 1340,-222"/>
</g>
<g id="clust34" class="cluster">
<title>cluster_UsersModule_exports</title>
<polygon fill="none" stroke="black" points="1496,-230 1496,-282 1606,-282 1606,-230 1496,-230"/>
</g>
<g id="clust36" class="cluster">
<title>cluster_UsersModule_providers</title>
<polygon fill="none" stroke="black" points="1348,-230 1348,-282 1488,-282 1488,-230 1348,-230"/>
</g>
<!-- AuthModule -->
<g id="node1" class="node">
<title>AuthModule</title>
<polygon fill="#8dd3c7" stroke="black" points="559.55,-198 556.55,-202 535.55,-202 532.55,-198 472.45,-198 472.45,-162 559.55,-162 559.55,-198"/>
<text text-anchor="middle" x="516" y="-175.8" font-family="Times,serif" font-size="14.00">AuthModule</text>
</g>
<!-- AppModule -->
<g id="node6" class="node">
<title>AppModule</title>
<polygon fill="#8dd3c7" stroke="black" points="568.66,-339 565.66,-343 544.66,-343 541.66,-339 485.34,-339 485.34,-303 568.66,-303 568.66,-339"/>
<text text-anchor="middle" x="527" y="-316.8" font-family="Times,serif" font-size="14.00">AppModule</text>
</g>
<!-- AuthModule&#45;&gt;AppModule -->
<g id="edge1" class="edge">
<title>AuthModule&#45;&gt;AppModule</title>
<path fill="none" stroke="black" d="M528.66,-198.14C528.66,-198.14 528.66,-292.93 528.66,-292.93"/>
<polygon fill="black" stroke="black" points="525.16,-292.92 528.66,-302.93 532.16,-292.93 525.16,-292.92"/>
</g>
<!-- AuthService  -->
<g id="node8" class="node">
<title>AuthService </title>
<polygon fill="#fb8072" stroke="black" points="903.98,-274 814.02,-274 814.02,-238 903.98,-238 903.98,-274"/>
<text text-anchor="middle" x="859" y="-251.8" font-family="Times,serif" font-size="14.00">AuthService </text>
</g>
<!-- AuthModule&#45;&gt;AuthService  -->
<g id="edge7" class="edge">
<title>AuthModule&#45;&gt;AuthService </title>
<path fill="none" stroke="black" stroke-dasharray="5,2" d="M544.22,-198.03C544.22,-222.98 544.22,-265 544.22,-265 544.22,-265 804.23,-265 804.23,-265"/>
<polygon fill="black" stroke="black" points="804.23,-268.5 814.23,-265 804.23,-261.5 804.23,-268.5"/>
</g>
<!-- MetaOptionsModule -->
<g id="node2" class="node">
<title>MetaOptionsModule</title>
<polygon fill="#8dd3c7" stroke="black" points="454.15,-198 451.15,-202 430.15,-202 427.15,-198 321.85,-198 321.85,-162 454.15,-162 454.15,-198"/>
<text text-anchor="middle" x="388" y="-175.8" font-family="Times,serif" font-size="14.00">MetaOptionsModule</text>
</g>
<!-- MetaOptionsModule&#45;&gt;AppModule -->
<g id="edge2" class="edge">
<title>MetaOptionsModule&#45;&gt;AppModule</title>
<path fill="none" stroke="black" d="M365.06,-198.21C365.06,-235.06 365.06,-315 365.06,-315 365.06,-315 475.3,-315 475.3,-315"/>
<polygon fill="black" stroke="black" points="475.3,-318.5 485.3,-315 475.3,-311.5 475.3,-318.5"/>
</g>
<!-- PostsModule -->
<g id="node3" class="node">
<title>PostsModule</title>
<polygon fill="#8dd3c7" stroke="black" points="497.61,-274 494.61,-278 473.61,-278 470.61,-274 408.39,-274 408.39,-238 497.61,-238 497.61,-274"/>
<text text-anchor="middle" x="453" y="-251.8" font-family="Times,serif" font-size="14.00">PostsModule</text>
</g>
<!-- PostsModule&#45;&gt;AppModule -->
<g id="edge3" class="edge">
<title>PostsModule&#45;&gt;AppModule</title>
<path fill="none" stroke="black" d="M491.36,-274.11C491.36,-274.11 491.36,-292.99 491.36,-292.99"/>
<polygon fill="black" stroke="black" points="487.86,-292.99 491.36,-302.99 494.86,-292.99 487.86,-292.99"/>
</g>
<!-- TagsModule -->
<g id="node4" class="node">
<title>TagsModule</title>
<polygon fill="#8dd3c7" stroke="black" points="664.26,-198 661.26,-202 640.26,-202 637.26,-198 577.74,-198 577.74,-162 664.26,-162 664.26,-198"/>
<text text-anchor="middle" x="621" y="-175.8" font-family="Times,serif" font-size="14.00">TagsModule</text>
</g>
<!-- TagsModule&#45;&gt;PostsModule -->
<g id="edge10" class="edge">
<title>TagsModule&#45;&gt;PostsModule</title>
<path fill="none" stroke="black" d="M642.69,-198.31C642.69,-218.15 642.69,-247 642.69,-247 642.69,-247 507.95,-247 507.95,-247"/>
<polygon fill="black" stroke="black" points="507.95,-243.5 497.95,-247 507.95,-250.5 507.95,-243.5"/>
</g>
<!-- TagsModule&#45;&gt;AppModule -->
<g id="edge4" class="edge">
<title>TagsModule&#45;&gt;AppModule</title>
<path fill="none" stroke="black" d="M577.74,-180C569.98,-180 564.3,-180 564.3,-180 564.3,-180 564.3,-292.86 564.3,-292.86"/>
<polygon fill="black" stroke="black" points="560.8,-292.86 564.3,-302.86 567.8,-292.86 560.8,-292.86"/>
</g>
<!-- TagsService  -->
<g id="node12" class="node">
<title>TagsService </title>
<polygon fill="#fb8072" stroke="black" points="1316.19,-274 1227.81,-274 1227.81,-238 1316.19,-238 1316.19,-274"/>
<text text-anchor="middle" x="1272" y="-251.8" font-family="Times,serif" font-size="14.00">TagsService </text>
</g>
<!-- TagsModule&#45;&gt;TagsService  -->
<g id="edge13" class="edge">
<title>TagsModule&#45;&gt;TagsService </title>
<path fill="none" stroke="black" stroke-dasharray="5,2" d="M599.31,-198.21C599.31,-203.55 599.31,-208 599.31,-208 599.31,-208 1272,-208 1272,-208 1272,-208 1272,-227.85 1272,-227.85"/>
<polygon fill="black" stroke="black" points="1268.5,-227.85 1272,-237.85 1275.5,-227.85 1268.5,-227.85"/>
</g>
<!-- UsersModule -->
<g id="node5" class="node">
<title>UsersModule</title>
<polygon fill="#8dd3c7" stroke="black" points="773.92,-198 770.92,-202 749.92,-202 746.92,-198 682.08,-198 682.08,-162 773.92,-162 773.92,-198"/>
<text text-anchor="middle" x="728" y="-175.8" font-family="Times,serif" font-size="14.00">UsersModule</text>
</g>
<!-- UsersModule&#45;&gt;PostsModule -->
<g id="edge11" class="edge">
<title>UsersModule&#45;&gt;PostsModule</title>
<path fill="none" stroke="black" d="M712.76,-198.01C712.76,-220.49 712.76,-256 712.76,-256 712.76,-256 507.65,-256 507.65,-256"/>
<polygon fill="black" stroke="black" points="507.65,-252.5 497.65,-256 507.65,-259.5 507.65,-252.5"/>
</g>
<!-- UsersModule&#45;&gt;AppModule -->
<g id="edge5" class="edge">
<title>UsersModule&#45;&gt;AppModule</title>
<path fill="none" stroke="black" d="M743.24,-198.14C743.24,-236.23 743.24,-321 743.24,-321 743.24,-321 578.69,-321 578.69,-321"/>
<polygon fill="black" stroke="black" points="578.69,-317.5 568.69,-321 578.69,-324.5 578.69,-317.5"/>
</g>
<!-- UsersService  -->
<g id="node14" class="node">
<title>UsersService </title>
<polygon fill="#fb8072" stroke="black" points="1597.85,-274 1504.15,-274 1504.15,-238 1597.85,-238 1597.85,-274"/>
<text text-anchor="middle" x="1551" y="-251.8" font-family="Times,serif" font-size="14.00">UsersService </text>
</g>
<!-- UsersModule&#45;&gt;UsersService  -->
<g id="edge15" class="edge">
<title>UsersModule&#45;&gt;UsersService </title>
<path fill="none" stroke="black" stroke-dasharray="5,2" d="M773.72,-174C946.64,-174 1551,-174 1551,-174 1551,-174 1551,-227.8 1551,-227.8"/>
<polygon fill="black" stroke="black" points="1547.5,-227.8 1551,-237.8 1554.5,-227.8 1547.5,-227.8"/>
</g>
<!-- AppService -->
<g id="node7" class="node">
<title>AppService</title>
<ellipse fill="#fdb462" stroke="black" cx="241" cy="-256" rx="56.74" ry="18"/>
<text text-anchor="middle" x="241" y="-251.8" font-family="Times,serif" font-size="14.00">AppService</text>
</g>
<!-- AppService&#45;&gt;AppModule -->
<g id="edge6" class="edge">
<title>AppService&#45;&gt;AppModule</title>
<path fill="none" stroke="black" d="M241,-274.28C241,-295.32 241,-327 241,-327 241,-327 475.11,-327 475.11,-327"/>
<polygon fill="black" stroke="black" points="475.11,-330.5 485.11,-327 475.11,-323.5 475.11,-330.5"/>
</g>
<!-- AuthService -->
<g id="node9" class="node">
<title>AuthService</title>
<ellipse fill="#fdb462" stroke="black" cx="987" cy="-256" rx="59.11" ry="18"/>
<text text-anchor="middle" x="987" y="-251.8" font-family="Times,serif" font-size="14.00">AuthService</text>
</g>
<!-- AuthService&#45;&gt;AuthModule -->
<g id="edge8" class="edge">
<title>AuthService&#45;&gt;AuthModule</title>
<path fill="none" stroke="black" d="M987,-237.79C987,-232.45 987,-228 987,-228 987,-228 513.11,-228 513.11,-228 513.11,-228 513.11,-208.15 513.11,-208.15"/>
<polygon fill="black" stroke="black" points="516.61,-208.15 513.11,-198.15 509.61,-208.15 516.61,-208.15"/>
</g>
<!-- MetaOptionsService -->
<g id="node10" class="node">
<title>MetaOptionsService</title>
<ellipse fill="#fdb462" stroke="black" cx="388" cy="-104" rx="90.33" ry="18"/>
<text text-anchor="middle" x="388" y="-99.8" font-family="Times,serif" font-size="14.00">MetaOptionsService</text>
</g>
<!-- MetaOptionsService&#45;&gt;MetaOptionsModule -->
<g id="edge9" class="edge">
<title>MetaOptionsService&#45;&gt;MetaOptionsModule</title>
<path fill="none" stroke="black" d="M388,-122.01C388,-122.01 388,-151.85 388,-151.85"/>
<polygon fill="black" stroke="black" points="384.5,-151.85 388,-161.85 391.5,-151.85 384.5,-151.85"/>
</g>
<!-- PostsService -->
<g id="node11" class="node">
<title>PostsService</title>
<ellipse fill="#fdb462" stroke="black" cx="84" cy="-180" rx="60.27" ry="18"/>
<text text-anchor="middle" x="84" y="-175.8" font-family="Times,serif" font-size="14.00">PostsService</text>
</g>
<!-- PostsService&#45;&gt;PostsModule -->
<g id="edge12" class="edge">
<title>PostsService&#45;&gt;PostsModule</title>
<path fill="none" stroke="black" d="M144.47,-180C211.31,-180 309.65,-180 309.65,-180 309.65,-180 309.65,-256 309.65,-256 309.65,-256 398.43,-256 398.43,-256"/>
<polygon fill="black" stroke="black" points="398.43,-259.5 408.43,-256 398.43,-252.5 398.43,-259.5"/>
</g>
<!-- TagsService -->
<g id="node13" class="node">
<title>TagsService</title>
<ellipse fill="#fdb462" stroke="black" cx="1145" cy="-256" rx="58.53" ry="18"/>
<text text-anchor="middle" x="1145" y="-251.8" font-family="Times,serif" font-size="14.00">TagsService</text>
</g>
<!-- TagsService&#45;&gt;TagsModule -->
<g id="edge14" class="edge">
<title>TagsService&#45;&gt;TagsModule</title>
<path fill="none" stroke="black" d="M1145,-237.89C1145,-228.1 1145,-218 1145,-218 1145,-218 621,-218 621,-218 621,-218 621,-208.11 621,-208.11"/>
<polygon fill="black" stroke="black" points="624.5,-208.11 621,-198.11 617.5,-208.11 624.5,-208.11"/>
</g>
<!-- UsersService -->
<g id="node15" class="node">
<title>UsersService</title>
<ellipse fill="#fdb462" stroke="black" cx="1418" cy="-256" rx="61.95" ry="18"/>
<text text-anchor="middle" x="1418" y="-251.8" font-family="Times,serif" font-size="14.00">UsersService</text>
</g>
<!-- UsersService&#45;&gt;UsersModule -->
<g id="edge16" class="edge">
<title>UsersService&#45;&gt;UsersModule</title>
<path fill="none" stroke="black" d="M1418,-237.97C1418,-217.23 1418,-186 1418,-186 1418,-186 783.81,-186 783.81,-186"/>
<polygon fill="black" stroke="black" points="783.81,-182.5 773.81,-186 783.81,-189.5 783.81,-182.5"/>
</g>
</g>
</svg>
